<?xml version="1.0" encoding="UTF-8" standalone="no"?>
<svg
   width="24"
   height="24"
   viewBox="0 0 24 24"
   version="1.1"
   id="svg1"
   sodipodi:docname="menu-icon.svg"
   inkscape:version="1.3.2 (091e20ef0f, 2023-11-25)"
   xmlns:inkscape="http://www.inkscape.org/namespaces/inkscape"
   xmlns:sodipodi="http://sodipodi.sourceforge.net/DTD/sodipodi-0.dtd"
   xmlns="http://www.w3.org/2000/svg"
   xmlns:svg="http://www.w3.org/2000/svg">
  <defs
     id="defs1" />
  <sodipodi:namedview
     id="namedview1"
     pagecolor="#ffffff"
     bordercolor="#666666"
     borderopacity="1.0"
     inkscape:showpageshadow="2"
     inkscape:pageopacity="0.0"
     inkscape:pagecheckerboard="0"
     inkscape:deskcolor="#d1d1d1"
     inkscape:zoom="32.583333"
     inkscape:cx="11.984655"
     inkscape:cy="12"
     inkscape:window-width="1920"
     inkscape:window-height="1004"
     inkscape:window-x="0"
     inkscape:window-y="0"
     inkscape:window-maximized="1"
     inkscape:current-layer="svg1" />
  <path
     d="M 0.66666668,2.1818182 C 0.2984768,2.1818182 0,1.6934015 0,1.090909 0,0.48841667 0.2984768,0 0.66666668,0 H 23.333333 C 23.701524,0 24,0.48841667 24,1.090909 24,1.6934015 23.701524,2.1818182 23.333333,2.1818182 Z m 0,10.9090908 C 0.2984768,13.090909 0,12.602491 0,12 0,11.397508 0.2984768,10.90909 0.66666668,10.90909 H 23.333333 C 23.701524,10.90909 24,11.397508 24,12 c 0,0.602491 -0.298476,1.090909 -0.666667,1.090909 z m 0,10.909091 C 0.2984768,24 0,23.511583 0,22.909091 0,22.306598 0.2984768,21.818182 0.66666668,21.818182 H 23.333333 C 23.701524,21.818182 24,22.306598 24,22.909091 24,23.511583 23.701524,24 23.333333,24 Z"
     id="path1"
     style="fill:#ffffff;stroke-width:1.7056" />
</svg>
