<?xml version="1.0" encoding="UTF-8" standalone="no"?>
<svg
   width="24"
   height="24"
   viewBox="0 0 24 24"
   version="1.1"
   id="svg1"
   sodipodi:docname="menu-icon.svg"
   inkscape:version="1.3.2 (091e20ef0f, 2023-11-25)"
   xmlns:inkscape="http://www.inkscape.org/namespaces/inkscape"
   xmlns:sodipodi="http://sodipodi.sourceforge.net/DTD/sodipodi-0.dtd"
   xmlns="http://www.w3.org/2000/svg"
   xmlns:svg="http://www.w3.org/2000/svg">
  <defs
     id="defs1" />
  <sodipodi:namedview
     id="namedview1"
     pagecolor="#ffffff"
     bordercolor="#666666"
     borderopacity="1.0"
     inkscape:showpageshadow="2"
     inkscape:pageopacity="0.0"
     inkscape:pagecheckerboard="0"
     inkscape:deskcolor="#d1d1d1"
     inkscape:zoom="32.583333"
     inkscape:cx="11.984655"
     inkscape:cy="12"
     inkscape:window-width="1920"
     inkscape:window-height="1004"
     inkscape:window-x="0"
     inkscape:window-y="0"
     inkscape:window-maximized="1"
     inkscape:current-layer="svg1" />
  <path
     d="M3.5,7 C3.22385763,7 3,6.77614237 3,6.5 C3,6.22385763 3.22385763,6 3.5,6 L20.5,6 C20.7761424,6 21,6.22385763 21,6.5 C21,6.77614237 20.7761424,7 20.5,7 L3.5,7 Z M3.5,12 C3.22385763,12 3,11.7761424 3,11.5 C3,11.2238576 3.22385763,11 3.5,11 L20.5,11 C20.7761424,11 21,11.2238576 21,11.5 C21,11.7761424 20.7761424,12 20.5,12 L3.5,12 Z M3.5,17 C3.22385763,17 3,16.7761424 3,16.5 C3,16.2238576 3.22385763,16 3.5,16 L20.5,16 C20.7761424,16 21,16.2238576 21,16.5 C21,16.7761424 20.7761424,17 20.5,17 L3.5,17 Z"
     id="path1"
     style="fill:#ffffff" />
</svg>
