<?xml version="1.0" encoding="UTF-8" standalone="no"?>
<!-- Created with Inkscape (http://www.inkscape.org/) -->

<svg
   id="svg2"
   sodipodi:docname="todo-app-icon.svg"
   viewBox="0 0 24 24"
   sodipodi:version="0.32"
   version="1.0"
   inkscape:output_extension="org.inkscape.output.svg.inkscape"
   inkscape:version="1.3 (0e150ed6c4, 2023-07-21)"
   width="24"
   height="24"
   xmlns:inkscape="http://www.inkscape.org/namespaces/inkscape"
   xmlns:sodipodi="http://sodipodi.sourceforge.net/DTD/sodipodi-0.dtd"
   xmlns="http://www.w3.org/2000/svg"
   xmlns:svg="http://www.w3.org/2000/svg"
   xmlns:rdf="http://www.w3.org/1999/02/22-rdf-syntax-ns#"
   xmlns:cc="http://creativecommons.org/ns#"
   xmlns:dc="http://purl.org/dc/elements/1.1/">
  <defs
     id="defs1" />
  <sodipodi:namedview
     id="base"
     bordercolor="#666666"
     inkscape:pageshadow="2"
     guidetolerance="10"
     pagecolor="#ffffff"
     gridtolerance="10000"
     inkscape:window-height="991"
     inkscape:zoom="18.322609"
     objecttolerance="10"
     showgrid="false"
     borderopacity="1.0"
     inkscape:current-layer="layer1"
     inkscape:cx="17.000854"
     inkscape:cy="12.198045"
     inkscape:window-y="23"
     inkscape:window-x="26"
     inkscape:window-width="1499"
     inkscape:pageopacity="0.0"
     inkscape:document-units="px"
     inkscape:showpageshadow="2"
     inkscape:pagecheckerboard="0"
     inkscape:deskcolor="#d1d1d1"
     inkscape:window-maximized="0" />
  <g
     id="layer1"
     inkscape:label="Layer 1"
     inkscape:groupmode="layer"
     transform="translate(-73.248,-53.178)">
    <g
       id="g2414"
       inkscape:label="Layer 1"
       transform="matrix(0.11764706,0,0,0.11373524,50.937412,49.702444)">
      <path
         id="path2418"
         sodipodi:nodetypes="csssccssssccc"
         style="fill:#000000;fill-rule:evenodd"
         d="m 289.67,57.934 c -45.77,0 -83.03,37.263 -83.03,83.026 0,45.77 37.26,83.03 83.03,83.03 45.77,0 83.03,-37.26 83.03,-83.03 0,-19.78 -6.7,-37.48 -18.07,-51.972 l -7.81,9.266 c 9.91,12.206 13.79,25.756 13.79,42.706 0,39.22 -31.72,70.92 -70.94,70.92 -39.22,0 -70.94,-31.7 -70.94,-70.92 0,-39.22 31.72,-70.934 70.94,-70.934 12.43,0 21.72,1.786 31.87,7.391 l 7.43,-9.754 c -11.88,-6.562 -24.8,-9.729 -39.3,-9.729 z" />
      <path
         id="path2510"
         style="fill:#000000"
         d="m 258.94,130.04 c 3.35,0 5.88,2.75 7.6,8.25 3.43,10.3 5.88,15.45 7.34,15.45 1.11,0 2.27,-0.86 3.47,-2.58 24.13,-38.63 46.45,-69.879 66.97,-93.745 5.32,-6.181 13.78,-9.272 25.37,-9.272 2.74,0 4.59,0.258 5.53,0.773 0.95,0.515 1.42,1.159 1.42,1.931 0,1.202 -1.42,3.563 -4.25,7.083 -33.14,39.835 -63.87,81.9 -92.2,126.2 -1.98,3.09 -6.01,4.64 -12.11,4.64 -6.18,0 -9.83,-0.26 -10.94,-0.78 -2.92,-1.28 -6.36,-7.85 -10.31,-19.7 -4.46,-13.13 -6.69,-21.38 -6.69,-24.72 0,-3.61 3,-7.09 9.01,-10.44 3.69,-2.06 6.96,-3.09 9.79,-3.09" />
    </g>
  </g>
  <metadata
     id="metadata1">
    <rdf:RDF>
      <cc:Work>
        <dc:format>image/svg+xml</dc:format>
        <dc:type
           rdf:resource="http://purl.org/dc/dcmitype/StillImage" />
        <cc:license
           rdf:resource="http://creativecommons.org/publicdomain/zero/1.0/" />
        <dc:publisher>
          <cc:Agent
             rdf:about="http://openclipart.org/">
            <dc:title>Openclipart</dc:title>
          </cc:Agent>
        </dc:publisher>
        <dc:title>checkmark_on_circle</dc:title>
        <dc:date>2008-10-26T10:10:59</dc:date>
        <dc:description>Checkmarks/ticks on circles\nLeft version comes with an intersected circle (as a path). Right version has a full circle. There the tick is a overlay (with a &quot;shadow&quot;; made gray only for visibility)</dc:description>
        <dc:source>https://openclipart.org/detail/19803/checkmark_on_circle-by-andrea_s</dc:source>
        <dc:creator>
          <cc:Agent>
            <dc:title>andrea_S</dc:title>
          </cc:Agent>
        </dc:creator>
        <dc:subject>
          <rdf:Bag>
            <rdf:li>check</rdf:li>
            <rdf:li>checkmark</rdf:li>
            <rdf:li>circle</rdf:li>
            <rdf:li>round</rdf:li>
            <rdf:li>sign</rdf:li>
            <rdf:li>symbol</rdf:li>
            <rdf:li>tick</rdf:li>
          </rdf:Bag>
        </dc:subject>
      </cc:Work>
      <cc:License
         rdf:about="http://creativecommons.org/publicdomain/zero/1.0/">
        <cc:permits
           rdf:resource="http://creativecommons.org/ns#Reproduction" />
        <cc:permits
           rdf:resource="http://creativecommons.org/ns#Distribution" />
        <cc:permits
           rdf:resource="http://creativecommons.org/ns#DerivativeWorks" />
      </cc:License>
    </rdf:RDF>
  </metadata>
</svg>
